<svg width="32" height="33" viewBox="0 0 32 33" fill="none" xmlns="http://www.w3.org/2000/svg">
<path d="M27.3334 8.5H4.66669M25.1107 11.8333L24.4974 21.0333C24.2614 24.572 24.144 26.3413 22.9907 27.42C21.8374 28.4987 20.0627 28.5 16.516 28.5H15.484C11.9374 28.5 10.1627 28.5 9.00935 27.42C7.85602 26.3413 7.73735 24.572 7.50269 21.0333L6.88935 11.8333" stroke="#AF0000" stroke-width="2" stroke-linecap="round"/>
<path d="M8.66669 8.5H8.81335C9.34995 8.48629 9.86992 8.31096 10.3053 7.99695C10.7406 7.68294 11.071 7.24485 11.2534 6.74L11.2987 6.60267L11.428 6.21467C11.5387 5.88267 11.5947 5.71733 11.668 5.576C11.8123 5.29919 12.0194 5.05999 12.2727 4.87755C12.5259 4.6951 12.8184 4.57448 13.1267 4.52533C13.2827 4.5 13.4574 4.5 13.8067 4.5H18.1934C18.5427 4.5 18.7174 4.5 18.8734 4.52533C19.1816 4.57448 19.4741 4.6951 19.7274 4.87755C19.9807 5.05999 20.1877 5.29919 20.332 5.576C20.4054 5.71733 20.4614 5.88267 20.572 6.21467L20.7014 6.60267C20.8703 7.16436 21.2198 7.65468 21.6956 7.99768C22.1714 8.34069 22.747 8.51724 23.3334 8.5" stroke="#AF0000" stroke-width="2"/>
</svg>
