<svg width="30" height="30" viewBox="0 0 30 30" fill="none" xmlns="http://www.w3.org/2000/svg">
<path d="M12.6056 1.97625C12.7297 2.03776 12.8386 2.12598 12.9245 2.23459C13.0104 2.34319 13.0712 2.46948 13.1025 2.60438C13.1362 2.7525 14.0625 6.71625 14.0625 9.375C14.0625 11.1563 13.2337 12.7444 11.9437 13.7738C11.475 14.1488 11.25 14.5575 11.25 14.8988V15.81C11.25 15.8538 11.2525 15.895 11.2575 15.9338C11.3212 16.3988 11.5519 18.1256 11.7675 19.9163C11.9794 21.6731 12.1875 23.5894 12.1875 24.375C12.1875 25.3696 11.7924 26.3234 11.0892 27.0267C10.3859 27.7299 9.43206 28.125 8.4375 28.125C7.44294 28.125 6.48911 27.7299 5.78585 27.0267C5.08259 26.3234 4.6875 25.3696 4.6875 24.375C4.6875 23.5875 4.89562 21.675 5.1075 19.9163C5.32312 18.1256 5.55375 16.3988 5.6175 15.9338L5.625 15.81V14.8988C5.625 14.5575 5.4 14.1488 4.93125 13.7738C4.27028 13.2469 3.73655 12.5778 3.36974 11.8162C3.00293 11.0547 2.81246 10.2203 2.8125 9.375C2.8125 6.72563 3.73125 2.7825 3.7725 2.60625C3.82124 2.39783 3.93917 2.21207 4.10704 2.07927C4.27491 1.94647 4.48283 1.87447 4.69688 1.875C5.22188 1.875 5.6475 2.30063 5.6475 2.82563V8.44688C5.64011 8.5735 5.65875 8.70029 5.70227 8.81942C5.74578 8.93856 5.81326 9.04751 5.90052 9.13955C5.98779 9.23159 6.09299 9.30477 6.20964 9.35456C6.32629 9.40436 6.45191 9.42972 6.57874 9.42908C6.70558 9.42844 6.83093 9.40181 6.94707 9.35083C7.06321 9.29986 7.16767 9.22562 7.254 9.1327C7.34033 9.03978 7.4067 8.93015 7.44901 8.81058C7.49132 8.69101 7.50867 8.56404 7.5 8.4375V2.8125C7.5 2.56386 7.59877 2.32541 7.77459 2.14959C7.9504 1.97377 8.18886 1.875 8.4375 1.875C8.68614 1.875 8.9246 1.97377 9.10041 2.14959C9.27623 2.32541 9.375 2.56386 9.375 2.8125V8.48625C9.38022 8.73241 9.48301 8.9664 9.66076 9.13677C9.83851 9.30714 10.0767 9.39991 10.3228 9.39469C10.569 9.38947 10.803 9.28668 10.9733 9.10893C11.1437 8.93118 11.2365 8.69303 11.2312 8.44688V2.82188C11.2312 2.29875 11.655 1.875 12.18 1.875C12.2212 1.875 12.405 1.875 12.6056 1.97625ZM16.875 10.3125C16.875 8.07474 17.7639 5.92863 19.3463 4.34629C20.9286 2.76395 23.0747 1.875 25.3125 1.875C25.5611 1.875 25.7996 1.97377 25.9754 2.14959C26.1512 2.32541 26.25 2.56386 26.25 2.8125V14.0119L26.2856 14.3438C26.4348 15.7431 26.5779 17.1431 26.715 18.5438C26.9456 20.8988 27.1875 23.5388 27.1875 24.375C27.1875 25.3696 26.7924 26.3234 26.0891 27.0267C25.3859 27.7299 24.4321 28.125 23.4375 28.125C22.4429 28.125 21.4891 27.7299 20.7859 27.0267C20.0826 26.3234 19.6875 25.3696 19.6875 24.375C19.6875 23.5388 19.9294 20.8988 20.16 18.5438C20.2781 17.3494 20.3962 16.2056 20.4844 15.3581L20.5219 15H18.75C18.2527 15 17.7758 14.8025 17.4242 14.4508C17.0725 14.0992 16.875 13.6223 16.875 13.125V10.3125Z" fill="#F5D200"/>
</svg>
