<svg width="30" height="30" viewBox="0 0 30 30" fill="none" xmlns="http://www.w3.org/2000/svg">
<g clip-path="url(#clip0_147_276)">
<path d="M28.55 3.74767V26.2464C28.555 27.2351 28.1671 28.1854 27.4716 28.8881C26.7761 29.5909 25.83 29.9886 24.8412 29.9939C24.6875 29.995 24.5339 29.9867 24.3812 29.9689C23.4584 29.832 22.6175 29.3625 22.0166 28.6489C21.4158 27.9352 21.0964 27.0266 21.1187 26.0939V3.90017C21.0966 2.96659 21.4168 2.05718 22.019 1.34338C22.6211 0.629583 23.4635 0.160716 24.3875 0.0251739C24.9117 -0.0360488 25.4429 0.0147052 25.946 0.17408C26.4492 0.333454 26.9127 0.597818 27.3061 0.949692C27.6994 1.30156 28.0136 1.73293 28.2278 2.21527C28.442 2.6976 28.5527 3.21992 28.55 3.74767ZM5.16624 22.5689C4.67256 22.5599 4.18203 22.6493 3.7233 22.8319C3.26457 23.0146 2.84684 23.2869 2.49451 23.6328C2.14218 23.9787 1.86232 24.3914 1.67128 24.8467C1.48023 25.302 1.38184 25.7908 1.38184 26.2845C1.38184 26.7783 1.48023 27.2671 1.67128 27.7224C1.86232 28.1777 2.14218 28.5904 2.49451 28.9363C2.84684 29.2822 3.26457 29.5545 3.7233 29.7372C4.18203 29.9198 4.67256 30.0092 5.16624 30.0002C6.13988 29.9823 7.06762 29.583 7.74986 28.8881C8.4321 28.1933 8.81434 27.2584 8.81434 26.2845C8.81434 25.3107 8.4321 24.3758 7.74986 23.681C7.06762 22.9861 6.13988 22.5868 5.16624 22.5689ZM15.0062 11.3064H14.9437C13.9517 11.3607 13.0197 11.7989 12.345 12.5282C11.6703 13.2575 11.3058 14.2207 11.3287 15.2139V25.1952C11.3287 27.9039 12.5212 29.5477 14.2662 29.8989C14.8077 30.0088 15.3668 29.9967 15.9031 29.8636C16.4393 29.7305 16.9392 29.4797 17.3664 29.1294C17.7937 28.7791 18.1376 28.3381 18.3732 27.8383C18.6089 27.3386 18.7303 26.7927 18.7287 26.2402V15.0414C18.7296 14.5518 18.6339 14.0667 18.4473 13.614C18.2607 13.1613 17.9867 12.7498 17.641 12.403C17.2954 12.0561 16.8848 11.7808 16.4327 11.5926C15.9806 11.4045 15.4959 11.3072 15.0062 11.3064Z" fill="#F5D200"/>
</g>
<defs>
<clipPath id="clip0_147_276">
<rect width="30" height="30" fill="white"/>
</clipPath>
</defs>
</svg>
