<svg width="30" height="30" viewBox="0 0 30 30" fill="none" xmlns="http://www.w3.org/2000/svg">
<path fill-rule="evenodd" clip-rule="evenodd" d="M17.48 3.1775C17.5887 3.38875 17.6163 3.66 17.67 4.2025C17.7725 5.2275 17.8237 5.74 18.0387 6.0225C18.1727 6.1979 18.3507 6.33471 18.5547 6.41902C18.7586 6.50333 18.9813 6.53213 19.2 6.5025C19.55 6.45625 19.95 6.13 20.7475 5.4775C21.1687 5.13125 21.38 4.95875 21.6063 4.88625C21.8944 4.79417 22.2062 4.80972 22.4837 4.93C22.7025 5.025 22.8962 5.2175 23.28 5.6025L24.3975 6.72C24.7825 7.105 24.975 7.2975 25.07 7.51625C25.1903 7.79382 25.2058 8.10559 25.1138 8.39375C25.0413 8.62 24.8687 8.83125 24.5238 9.2525C23.87 10.0512 23.5438 10.45 23.4963 10.8012C23.467 11.0199 23.4961 11.2423 23.5806 11.4461C23.6651 11.6498 23.8021 11.8275 23.9775 11.9613C24.2587 12.1763 24.7725 12.2275 25.7987 12.33C26.34 12.3837 26.6112 12.4113 26.8237 12.52C27.0918 12.659 27.3005 12.8903 27.4113 13.1712C27.5 13.3925 27.5 13.665 27.5 14.21V15.79C27.5 16.335 27.5 16.6075 27.4125 16.8275C27.3014 17.1093 27.0917 17.3412 26.8225 17.48C26.6112 17.5887 26.34 17.6163 25.7975 17.67C24.7725 17.7725 24.26 17.8237 23.9775 18.0387C23.8021 18.1727 23.6653 18.3507 23.581 18.5547C23.4967 18.7586 23.4679 18.9813 23.4975 19.2C23.545 19.55 23.8713 19.95 24.5238 20.7475C24.8687 21.1687 25.0413 21.3787 25.1138 21.6063C25.2058 21.8944 25.1903 22.2062 25.07 22.4837C24.975 22.7025 24.7825 22.895 24.3975 23.28L23.28 24.3962C22.895 24.7825 22.7025 24.975 22.4837 25.0688C22.2062 25.189 21.8944 25.2046 21.6063 25.1125C21.38 25.04 21.1687 24.8675 20.7475 24.5225C19.9487 23.87 19.55 23.5438 19.2 23.4975C18.9813 23.4679 18.7586 23.4967 18.5547 23.581C18.3507 23.6653 18.1727 23.8021 18.0387 23.9775C17.8237 24.2587 17.7725 24.7712 17.67 25.7975C17.6163 26.34 17.5887 26.6112 17.48 26.8225C17.3415 27.0915 17.1101 27.3011 16.8288 27.4125C16.6075 27.5 16.335 27.5 15.79 27.5H14.21C13.665 27.5 13.3925 27.5 13.1725 27.4125C12.8907 27.3014 12.6588 27.0917 12.52 26.8225C12.4113 26.6112 12.3837 26.34 12.33 25.7975C12.2275 24.7725 12.1763 24.26 11.9613 23.9775C11.8274 23.8023 11.6496 23.6656 11.4459 23.5813C11.2422 23.497 11.0198 23.4681 10.8012 23.4975C10.45 23.5438 10.0512 23.87 9.2525 24.5225C8.83125 24.8687 8.62 25.0413 8.39375 25.1138C8.10559 25.2058 7.79382 25.1903 7.51625 25.07C7.2975 24.975 7.10375 24.7825 6.72 24.3975L5.6025 23.28C5.2175 22.895 5.025 22.7025 4.93 22.4837C4.80972 22.2062 4.79417 21.8944 4.88625 21.6063C4.95875 21.38 5.13125 21.1687 5.47625 20.7475C6.13 19.9487 6.45625 19.55 6.5025 19.1987C6.5319 18.9802 6.50298 18.7578 6.41868 18.5541C6.33439 18.3504 6.1977 18.1726 6.0225 18.0387C5.74125 17.8237 5.2275 17.7725 4.20125 17.67C3.66 17.6163 3.38875 17.5887 3.17625 17.48C2.90818 17.341 2.69949 17.1097 2.58875 16.8288C2.5 16.6075 2.5 16.335 2.5 15.79V14.21C2.5 13.665 2.5 13.3925 2.5875 13.1725C2.69861 12.8907 2.90827 12.6588 3.1775 12.52C3.38875 12.4113 3.66 12.3837 4.2025 12.33C5.2275 12.2275 5.74125 12.1763 6.0225 11.9613C6.19793 11.8275 6.33486 11.6498 6.41938 11.4461C6.5039 11.2423 6.53301 11.0199 6.50375 10.8012C6.45625 10.45 6.12875 10.0512 5.47625 9.25125C5.13125 8.83 4.95875 8.62 4.88625 8.3925C4.79417 8.10434 4.80972 7.79257 4.93 7.515C5.025 7.2975 5.2175 7.10375 5.6025 6.71875L6.72 5.6025C7.105 5.2175 7.2975 5.02375 7.51625 4.93C7.79382 4.80972 8.10559 4.79417 8.39375 4.88625C8.62 4.95875 8.83125 5.13125 9.2525 5.47625C10.0512 6.12875 10.45 6.455 10.8 6.5025C11.019 6.53222 11.242 6.50334 11.4462 6.4188C11.6504 6.33426 11.8286 6.19708 11.9625 6.02125C12.175 5.74 12.2275 5.2275 12.33 4.20125C12.3837 3.66 12.4113 3.38875 12.52 3.17625C12.6588 2.90771 12.8901 2.69855 13.1712 2.5875C13.3925 2.5 13.665 2.5 14.21 2.5H15.79C16.335 2.5 16.6075 2.5 16.8275 2.5875C17.1093 2.69861 17.3412 2.90827 17.48 3.1775ZM15 20C16.3261 20 17.5979 19.4732 18.5355 18.5355C19.4732 17.5979 20 16.3261 20 15C20 13.6739 19.4732 12.4021 18.5355 11.4645C17.5979 10.5268 16.3261 10 15 10C13.6739 10 12.4021 10.5268 11.4645 11.4645C10.5268 12.4021 10 13.6739 10 15C10 16.3261 10.5268 17.5979 11.4645 18.5355C12.4021 19.4732 13.6739 20 15 20Z" fill="#F5D200"/>
</svg>
