<svg width="20" height="20" viewBox="0 0 20 20" fill="none" xmlns="http://www.w3.org/2000/svg">
<path d="M7.49996 6.66764L12.5 13.3343M17.325 7.62764C17.9983 8.78598 18.3333 9.36515 18.3333 10.001C18.3333 10.6368 17.9975 11.216 17.325 12.3743L15.7225 15.1376C15.0533 16.291 14.7183 16.8676 14.1683 17.1843C13.6183 17.501 12.95 17.501 11.6141 17.501H8.38579C7.04996 17.501 6.38163 17.501 5.83163 17.1843C5.28163 16.8676 4.94663 16.291 4.27746 15.1376L2.67496 12.3743C2.00246 11.216 1.66663 10.6368 1.66663 10.001C1.66663 9.36515 2.00246 8.78598 2.67496 7.62764L4.27746 4.86431C4.94663 3.71098 5.28163 3.13431 5.83163 2.81764C6.38163 2.50098 7.04996 2.50098 8.38579 2.50098H11.6141C12.95 2.50098 13.6183 2.50098 14.1683 2.81764C14.7183 3.13431 15.0533 3.71098 15.7225 4.86431L17.325 7.62764Z" stroke="black" stroke-width="1.25" stroke-linecap="round" stroke-linejoin="round"/>
</svg>
