<svg width="20" height="20" viewBox="0 0 20 20" fill="none" xmlns="http://www.w3.org/2000/svg">
<path d="M17.4525 14.0288C16.9957 11.3026 15.6904 8.79 13.7225 6.84884C13.2917 6.42967 13.0767 6.22051 12.6008 6.02717C12.125 5.83301 11.7158 5.83301 10.8983 5.83301H9.10165C8.28415 5.83301 7.87498 5.83301 7.39915 6.02717C6.92415 6.22051 6.70748 6.42967 6.27748 6.84884C4.30953 8.79 3.00423 11.3026 2.54748 14.0288C2.14165 16.4772 4.39998 18.333 6.92332 18.333H13.0767C15.6008 18.333 17.86 16.4772 17.4517 14.0288" stroke="black" stroke-opacity="0.5" stroke-width="1.25" stroke-linecap="round" stroke-linejoin="round"/>
<path d="M11.3558 10.7657C11.1758 10.0998 10.2583 9.49984 9.15751 9.949C8.05668 10.3982 7.88251 11.8423 9.54668 11.9965C10.3 12.0657 10.79 11.9157 11.2392 12.3398C11.6892 12.7632 11.7725 13.9423 10.6233 14.2598C9.47584 14.5773 8.33834 14.0815 8.21501 13.3765M9.86834 9.15984V9.794M9.86834 14.3573V14.994M6.04751 3.70234C5.87501 3.45234 5.62584 3.11234 6.14084 3.03567C6.67001 2.95567 7.21918 3.31734 7.75751 3.31067C8.24334 3.30317 8.49084 3.08734 8.75751 2.779C9.03751 2.45484 9.47084 1.6665 10 1.6665C10.5292 1.6665 10.9625 2.45484 11.2425 2.779C11.5092 3.08734 11.7567 3.304 12.2425 3.30984C12.7808 3.31817 13.33 2.95567 13.8592 3.03484C14.3742 3.11234 14.125 3.4515 13.9525 3.7015L13.1758 4.834C12.8425 5.31734 12.6767 5.559 12.3283 5.6965C11.98 5.834 11.5308 5.83317 10.6317 5.83317H9.36834C8.46834 5.83317 8.01918 5.83317 7.67168 5.6965C7.32418 5.55984 7.15751 5.3165 6.82418 4.83317L6.04751 3.70234Z" stroke="black" stroke-opacity="0.5" stroke-width="1.25" stroke-linecap="round" stroke-linejoin="round"/>
</svg>
