<svg width="20" height="20" viewBox="0 0 20 20" fill="none" xmlns="http://www.w3.org/2000/svg">
<path d="M10 13.3332V11.6665M4.16669 12.4998C4.16669 11.7338 4.31757 10.9752 4.61072 10.2675C4.90388 9.55978 5.33356 8.91672 5.87523 8.37505C6.41691 7.83337 7.05997 7.40369 7.7677 7.11054C8.47543 6.81739 9.23398 6.6665 10 6.6665C10.7661 6.6665 11.5246 6.81739 12.2323 7.11054C12.9401 7.40369 13.5831 7.83337 14.1248 8.37505C14.6665 8.91672 15.0962 9.55978 15.3893 10.2675C15.6825 10.9752 15.8334 11.7338 15.8334 12.4998C15.8334 14.0469 15.2188 15.5307 14.1248 16.6246C13.0308 17.7186 11.5471 18.3332 10 18.3332C8.45292 18.3332 6.96919 17.7186 5.87523 16.6246C4.78127 15.5307 4.16669 14.0469 4.16669 12.4998Z" stroke="black" stroke-opacity="0.5" stroke-width="1.25" stroke-linecap="round" stroke-linejoin="round"/>
<path d="M13.75 7.9165V5.4165C13.75 4.42194 13.3549 3.46811 12.6516 2.76485C11.9484 2.06159 10.9946 1.6665 10 1.6665C9.00544 1.6665 8.05161 2.06159 7.34835 2.76485C6.64509 3.46811 6.25 4.42194 6.25 5.4165V7.9165" stroke="black" stroke-opacity="0.5" stroke-width="1.25" stroke-linecap="round" stroke-linejoin="round"/>
</svg>
