<svg width="20" height="20" viewBox="0 0 20 20" fill="none" xmlns="http://www.w3.org/2000/svg">
<path d="M4.16667 10.8337C4.16667 10.3916 4.34227 9.96771 4.65483 9.65515C4.96739 9.34259 5.39131 9.16699 5.83334 9.16699H14.1667C14.6087 9.16699 15.0326 9.34259 15.3452 9.65515C15.6577 9.96771 15.8333 10.3916 15.8333 10.8337V15.8337C15.8333 16.2757 15.6577 16.6996 15.3452 17.0122C15.0326 17.3247 14.6087 17.5003 14.1667 17.5003H5.83334C5.39131 17.5003 4.96739 17.3247 4.65483 17.0122C4.34227 16.6996 4.16667 16.2757 4.16667 15.8337V10.8337Z" stroke="#323232" stroke-width="1.66667" stroke-linecap="round" stroke-linejoin="round"/>
<path d="M6.66667 9.16667V5.83333C6.66667 4.94928 7.01786 4.10143 7.64298 3.47631C8.2681 2.85119 9.11595 2.5 10 2.5C10.8841 2.5 11.7319 2.85119 12.357 3.47631C12.9821 4.10143 13.3333 4.94928 13.3333 5.83333V9.16667M9.16667 13.3333C9.16667 13.5543 9.25447 13.7663 9.41075 13.9226C9.56703 14.0789 9.77899 14.1667 10 14.1667C10.221 14.1667 10.433 14.0789 10.5893 13.9226C10.7455 13.7663 10.8333 13.5543 10.8333 13.3333C10.8333 13.1123 10.7455 12.9004 10.5893 12.7441C10.433 12.5878 10.221 12.5 10 12.5C9.77899 12.5 9.56703 12.5878 9.41075 12.7441C9.25447 12.9004 9.16667 13.1123 9.16667 13.3333Z" stroke="#323232" stroke-width="1.66667" stroke-linecap="round" stroke-linejoin="round"/>
</svg>
