<svg width="12" height="11" viewBox="0 0 12 11" fill="none" xmlns="http://www.w3.org/2000/svg">
<path fill-rule="evenodd" clip-rule="evenodd" d="M3 10.9C2.20435 10.9 1.44129 10.5839 0.87868 10.0213C0.316071 9.45871 0 8.69565 0 7.9V6.1C0 5.94087 0.0632141 5.78826 0.175736 5.67574C0.288258 5.56321 0.44087 5.5 0.6 5.5C0.75913 5.5 0.911742 5.56321 1.02426 5.67574C1.13679 5.78826 1.2 5.94087 1.2 6.1V7.9C1.2 8.37739 1.38964 8.83523 1.72721 9.17279C2.06477 9.51036 2.52261 9.7 3 9.7H9C9.47739 9.7 9.93523 9.51036 10.2728 9.17279C10.6104 8.83523 10.8 8.37739 10.8 7.9V6.1C10.8 5.94087 10.8632 5.78826 10.9757 5.67574C11.0883 5.56321 11.2409 5.5 11.4 5.5C11.5591 5.5 11.7117 5.56321 11.8243 5.67574C11.9368 5.78826 12 5.94087 12 6.1V7.9C12 8.69565 11.6839 9.45871 11.1213 10.0213C10.5587 10.5839 9.79565 10.9 9 10.9H3Z" fill="#006AFF"/>
<path fill-rule="evenodd" clip-rule="evenodd" d="M3.17101 3.76003C3.11585 3.70367 3.07234 3.637 3.04297 3.56382C3.01359 3.49064 2.99893 3.41239 2.99982 3.33353C3.00072 3.25468 3.01714 3.17678 3.04816 3.10429C3.07918 3.03179 3.12419 2.96612 3.18061 2.91103L5.88061 0.271025C5.99272 0.161449 6.14325 0.100098 6.30001 0.100098C6.45677 0.100098 6.60731 0.161449 6.71941 0.271025L9.41941 2.91103C9.47696 2.96582 9.52305 3.03149 9.55501 3.10424C9.58696 3.17699 9.60415 3.25537 9.60558 3.33481C9.607 3.41426 9.59263 3.4932 9.5633 3.56704C9.53396 3.64089 9.49026 3.70818 9.43471 3.76499C9.37916 3.82181 9.31288 3.86703 9.23972 3.89803C9.16655 3.92902 9.08796 3.94518 9.0085 3.94555C8.92905 3.94593 8.8503 3.93051 8.77685 3.90021C8.7034 3.86991 8.63669 3.82532 8.58061 3.76902L6.90001 2.12562V7.30002C6.90001 7.45915 6.8368 7.61177 6.72428 7.72429C6.61175 7.83681 6.45914 7.90002 6.30001 7.90002C6.14088 7.90002 5.98827 7.83681 5.87575 7.72429C5.76323 7.61177 5.70001 7.45915 5.70001 7.30002V2.12562L4.02001 3.76902C3.96366 3.82419 3.89699 3.8677 3.82381 3.89707C3.75063 3.92644 3.67237 3.9411 3.59352 3.94021C3.51467 3.93932 3.43677 3.9229 3.36427 3.89187C3.29177 3.86085 3.2261 3.81585 3.17101 3.75942V3.76003Z" fill="#006AFF"/>
</svg>
